<svg width="16" height="16" viewBox="0 0 16 16" fill="none" xmlns="http://www.w3.org/2000/svg">
<path fill-rule="evenodd" clip-rule="evenodd" d="M8.66642 1.33366C8.66642 0.965469 8.36795 0.666992 7.99976 0.666992C7.63157 0.666992 7.33309 0.965469 7.33309 1.33366V7.33368H1.33317C0.964981 7.33368 0.666504 7.63216 0.666504 8.00035C0.666504 8.36854 0.964981 8.66701 1.33317 8.66701H7.33309V14.667C7.33309 15.0352 7.63157 15.3337 7.99976 15.3337C8.36795 15.3337 8.66642 15.0352 8.66642 14.667V8.66701H14.6665C15.0347 8.66701 15.3332 8.36854 15.3332 8.00035C15.3332 7.63216 15.0347 7.33368 14.6665 7.33368H8.66642V1.33366Z" fill="#232528"/>
</svg>
