<svg width="16" height="16" viewBox="0 0 16 16" fill="none" xmlns="http://www.w3.org/2000/svg">
<path d="M12 6.5H7.49994C6.94766 6.5 6.49994 6.94772 6.49994 7.5V12C6.49994 12.5523 6.94766 13 7.49994 13H12C12.5522 13 13 12.5523 13 12V7.5C13 6.94772 12.5522 6.5 12 6.5Z" stroke="#BFC2C6" stroke-linecap="round" stroke-linejoin="round"/>
<path d="M4.5 9.50001H4C3.73479 9.50001 3.48043 9.39466 3.29289 9.20712C3.10536 9.01958 3 8.76523 3 8.50001V4C3 3.73479 3.10536 3.48043 3.29289 3.29289C3.48043 3.10536 3.73479 3 4 3H8.50001C8.76523 3 9.01958 3.10536 9.20712 3.29289C9.39466 3.48043 9.50001 3.73479 9.50001 4V4.5" stroke="#BFC2C6" stroke-linecap="round" stroke-linejoin="round"/>
</svg>
