<svg width="175" height="200" viewBox="0 0 175 200" fill="none" xmlns="http://www.w3.org/2000/svg">
<path d="M141.588 70.55L99.2843 138.551C93.607 147.667 80.5012 147.667 74.8239 138.551L32.5206 70.55C27.599 62.6601 25 53.5264 25 44.1885V36.967C25 30.358 30.2902 24.9929 36.797 24.9929H137.311C143.836 24.9929 149.108 30.358 149.108 36.967V44.1885C149.108 53.5264 146.509 62.6601 141.588 70.55Z" fill="#7B78FF"/>
<path d="M32.5206 129.417L74.8239 61.4344C80.5012 52.3193 93.607 52.3193 99.2843 61.4344L141.588 129.417C146.509 137.307 149.108 146.459 149.108 155.797V163.019C149.108 169.628 143.818 174.993 137.311 174.993H36.797C30.2718 174.993 25 169.628 25 163.019V155.797C25 146.459 27.599 137.326 32.5206 129.417Z" fill="#9FD2EB"/>
<path d="M99.2845 61.4344C93.6072 52.3193 80.5014 52.3193 74.8241 61.4344L50.843 99.9927L74.8426 138.551C80.5199 147.666 93.6256 147.666 99.3029 138.551L123.284 99.9927L99.2845 61.4344Z" fill="#11429F"/>
</svg>
